<?xml version="1.0" standalone="no"?>
<!DOCTYPE svg PUBLIC "-//W3C//DTD SVG 1.1//EN" "http://www.w3.org/Graphics/SVG/1.1/DTD/svg11.dtd" >
<svg xmlns="http://www.w3.org/2000/svg">
<metadata>
This is a custom SVG webfont generated by Font Squirrel.
Copyright   : Copyright 2005 Canada Type All rights reserved
Foundry     : Canada Type
</metadata>
<defs>
<font id="TrumpGothicEastRegular" horiz-adv-x="530" >
<font-face units-per-em="2048" ascent="1638" descent="-410" />
<missing-glyph horiz-adv-x="307" />
<glyph unicode=" "  horiz-adv-x="307" />
<glyph unicode="&#x09;" horiz-adv-x="307" />
<glyph unicode="&#xa0;" horiz-adv-x="307" />
<glyph unicode="!" horiz-adv-x="260" d="M39 66q0 43 28.5 65.5t67.5 22.5q43 0 64.5 -27t21.5 -68q0 -39 -29.5 -59t-64.5 -20t-61.5 27.5t-26.5 58.5zM66 1571h141l-31 -1262h-82z" />
<glyph unicode="&#x22;" horiz-adv-x="395" d="M43 1571h123l-31 -430h-61zM233 1571h123l-30 -430h-62z" />
<glyph unicode="#" horiz-adv-x="718" d="M23 799v114h145l29 131h-125v115h149l35 168h117l-35 -168h113l34 168h117l-35 -168h123v-115h-147l-29 -131h127v-114h-152l-32 -148h-117l33 148h-113l-33 -148h-116l32 148h-120zM285 913h112l29 131h-113z" />
<glyph unicode="$" horiz-adv-x="606" d="M61 301v223h127v-278q0 -72 25 -107t59 -45v615l-74 79q-38 41 -68 87.5t-49.5 99.5t-19.5 117v176q0 92 20.5 152.5t51.5 97t68 54t71 21.5v107h68v-109q35 -4 70.5 -21.5t65.5 -54t49.5 -97t19.5 -150.5v-246h-127v301q0 66 -22.5 101.5t-55.5 48.5v-648 q37 -33 73 -68.5t65.5 -77.5t48 -91t18.5 -109v-178q0 -80 -9.5 -139.5t-33 -99t-63.5 -61t-99 -26.5v-106h-68v106q-125 8 -168 87t-43 239zM188 1110q0 -66 24 -118t60 -95v578q-35 -10 -59.5 -45t-24.5 -107v-213zM340 96q33 10 55.5 46t22.5 104v211q0 47 -21.5 91 t-56.5 85v-537z" />
<glyph unicode="%" horiz-adv-x="1241" d="M61 883v407q0 84 8.5 142.5t29 95.5t57.5 53t92 16t92 -16t57.5 -52t28.5 -94.5t8 -144.5v-407q0 -86 -8 -144.5t-28.5 -94.5t-57.5 -52.5t-92 -16.5t-92 16.5t-57.5 53.5t-29 95.5t-8.5 142.5zM174 834q0 -86 15.5 -121t58.5 -35t58.5 35t15.5 121v505q0 86 -15.5 121 t-58.5 35t-58.5 -35t-15.5 -121v-505zM395 0l340 1573h117l-340 -1573h-117zM807 285v407q0 84 8 142.5t28.5 95.5t57.5 53t92.5 16t92 -16t57 -52t29 -94.5t8.5 -144.5v-407q0 -86 -8.5 -144.5t-29 -94.5t-57 -52.5t-92 -16.5t-92.5 16.5t-57.5 53.5t-28.5 95.5t-8 142.5z M920 236q0 -86 15 -121t58 -35t58.5 35t15.5 121v505q0 86 -15.5 121t-58.5 35t-58 -35t-15 -121v-505z" />
<glyph unicode="&#x26;" horiz-adv-x="610" d="M61 281v262q0 104 33 173.5t139 104.5q-53 14 -86.5 37t-52 54.5t-26 73.5t-7.5 93v211q0 170 68 238.5t174 68.5q53 0 97 -16t77 -53t50.5 -95.5t17.5 -142.5v-61h-127v117q0 43 -10.5 69.5t-25.5 40.5t-35.5 19.5t-43.5 5.5q-20 0 -41.5 -5.5t-37 -19.5t-26 -40.5 t-10.5 -69.5v-345q0 -43 19.5 -69.5t47.5 -40.5t58.5 -19.5t51.5 -5.5h53v123h127v-123h63v-110h-63v-475q0 -84 -17.5 -142.5t-50.5 -95.5t-77 -53.5t-97 -16.5q-106 0 -174 69t-68 239zM188 225q0 -43 10.5 -69.5t26 -41t37 -19.5t41.5 -5q23 0 43.5 5t35.5 19.5t25.5 41 t10.5 69.5v531h-53q-20 0 -51 -5.5t-59 -19.5t-47.5 -40.5t-19.5 -69.5v-396z" />
<glyph unicode="'" horiz-adv-x="204" d="M43 1571h123l-31 -430h-61z" />
<glyph unicode="(" horiz-adv-x="372" d="M86 575q0 51 6 158t22.5 244t49.5 291.5t84 304.5h125q-53 -141 -85 -294t-49.5 -290t-22.5 -242.5t-5 -152.5q0 -39 4 -143.5t21.5 -239.5t49 -283.5t87.5 -277.5h-125l-63 181q-30 89 -52 195.5t-34.5 238.5t-12.5 310z" />
<glyph unicode=")" horiz-adv-x="372" d="M-2 1575h125q29 -68 49 -135q16 -49 34.5 -127t36 -179.5t29 -223.5t11.5 -259q0 -41 -2 -121.5t-11.5 -186t-29 -229.5t-52.5 -249q-14 -53 -30.5 -106.5t-34.5 -106.5h-123q16 45 29.5 87t25.5 87q35 125 55.5 252t31 237.5t13.5 194.5t3 121q0 29 -3 108.5t-12.5 187 t-29 230.5t-52.5 238q-14 47 -29 90z" />
<glyph unicode="*" horiz-adv-x="604" d="M43 1284v100h170l-84 148l86 51l88 -151l84 149l88 -49l-84 -150h170v-98h-172l86 -149l-88 -50l-84 142l-84 -144l-86 52l86 149h-176z" />
<glyph unicode="+" horiz-adv-x="638" d="M53 705v114h211v211h115v-211h211v-114h-211v-211h-115v211h-211z" />
<glyph unicode="," horiz-adv-x="258" d="M-94 -276l180 446h154l-260 -446h-74z" />
<glyph unicode="-" horiz-adv-x="509" d="M49 541v114h408v-114h-408z" />
<glyph unicode="." horiz-adv-x="280" d="M47 66q0 43 28.5 65.5t67.5 22.5q43 0 64.5 -27t21.5 -68q0 -39 -29.5 -59t-64.5 -20t-61.5 27.5t-26.5 58.5z" />
<glyph unicode="/" horiz-adv-x="456" d="M0 0l340 1573h117l-340 -1573h-117z" />
<glyph unicode="0" horiz-adv-x="626" d="M72 301v967q0 102 24.5 165.5t61.5 99.5t79 49t76 13q31 0 73 -12t80 -48t63.5 -99.5t25.5 -167.5v-967q0 -104 -24.5 -167.5t-61.5 -99.5t-79 -48.5t-76.5 -12.5t-76.5 13.5t-79 49.5t-61.5 99.5t-24.5 165.5zM199 246q0 -86 35.5 -121t78.5 -35t79 35t36 121v1077 q0 86 -36 121t-79 35t-78.5 -35t-35.5 -121v-1077z" />
<glyph unicode="1" horiz-adv-x="405" d="M10 1343v125l211 101h103v-1569h-127v1419z" />
<glyph unicode="2" horiz-adv-x="575" d="M41 0v176q0 74 26.5 152t65.5 159.5t86 162.5t86 161t65.5 155.5t26.5 143.5v213q0 86 -35.5 121t-78.5 35t-79 -35t-36 -121v-270h-127v215q0 172 67.5 249.5t174 77.5t174 -79.5t67.5 -247.5v-181q0 -70 -26.5 -149.5t-65.5 -162.5t-85 -169t-85 -170t-64.5 -161.5 t-25.5 -147.5h315v-127h-446z" />
<glyph unicode="3" horiz-adv-x="610" d="M61 281v221h127v-277q0 -43 10.5 -69.5t26 -41t37 -19.5t41.5 -5q23 0 43.5 5t35.5 19.5t25.5 41t10.5 69.5v396q0 43 -19.5 69.5t-47 40.5t-57.5 19.5t-52 5.5q-10 0 -19.5 -1t-19.5 -3v118q10 -4 19 -4h20q23 0 52.5 5.5t57 19.5t47 40.5t19.5 69.5v345 q0 43 -10.5 69.5t-25.5 40.5t-35.5 19.5t-43.5 5.5q-20 0 -41.5 -5.5t-37 -19.5t-26 -40.5t-10.5 -69.5v-285h-122q-2 16 -3.5 32.5t-1.5 36.5v160q0 84 17.5 142.5t50.5 95.5t77 53t97 16q106 0 174 -68.5t68 -238.5v-211q0 -51 -7.5 -93t-25.5 -73.5t-52 -54t-87 -37.5 q106 -35 139 -104.5t33 -173.5v-262q0 -170 -67.5 -239t-174.5 -69q-53 0 -97 16.5t-77 53.5t-50.5 95.5t-17.5 142.5z" />
<glyph unicode="4" horiz-adv-x="606" d="M20 434v127l269 1008h174v-1008h123v-127h-123v-434h-127v434h-316zM152 561h184v873z" />
<glyph unicode="5" horiz-adv-x="608" d="M61 741v828h433v-127h-306v-547q14 20 25.5 40.5t30 38t47 29t76.5 11.5q35 0 67.5 -13.5t57 -46t40 -88t15.5 -139.5v-426q0 -168 -67.5 -248t-174 -80t-175.5 79t-69 249v117h127v-172q0 -86 37 -121t80 -35t79 35t36 121v524q0 86 -36 121t-79 35q-29 0 -49 -21.5 t-34.5 -52.5t-21.5 -61.5t-10 -49.5h-129z" />
<glyph unicode="6" horiz-adv-x="622" d="M72 301v963q0 168 67.5 247.5t174 79.5t174 -77.5t67.5 -249.5v-117h-127v172q0 86 -36 121t-79 35t-78.5 -35t-35.5 -121v-445q14 23 29.5 43.5t36 38t48 27.5t64.5 10q35 0 67.5 -13t57 -46t40 -88t15.5 -139v-406q0 -168 -67.5 -248t-174 -80t-175 79t-68.5 249z M199 246q0 -86 36.5 -121t79.5 -35t79 35t36 121v504q0 86 -36 120.5t-79 34.5t-78.5 -44t-35.5 -111z" />
<glyph unicode="7" horiz-adv-x="593" d="M10 0l420 1442h-377v127h531v-37l-434 -1532h-140z" />
<glyph unicode="8" horiz-adv-x="614" d="M66 281v333q0 102 36.5 161t94.5 97q-57 23 -94 88.5t-37 169.5v160q0 84 17 142.5t50 95.5t77 53t97 16q106 0 174 -68.5t68 -238.5v-160q0 -104 -37 -169.5t-94 -88.5q57 -39 94 -106.5t37 -171.5v-313q0 -170 -67.5 -239t-174.5 -69q-53 0 -97 16.5t-77 53.5t-50 95.5 t-17 142.5zM193 225q0 -43 10 -69.5t25.5 -41t37 -19.5t41.5 -5q23 0 43.5 5t35.5 19.5t25.5 41t10.5 69.5v447q0 43 -10.5 69.5t-25.5 41t-35.5 19.5t-43.5 5q-20 0 -41.5 -5t-37 -19.5t-25.5 -41t-10 -69.5v-447zM193 1053q0 -43 10 -70t25.5 -41t37 -19.5t41.5 -5.5 q23 0 43.5 5.5t35.5 19.5t25.5 41t10.5 70v293q0 43 -10.5 69.5t-25.5 40.5t-35.5 19.5t-43.5 5.5q-20 0 -41.5 -5.5t-37 -19.5t-25.5 -40.5t-10 -69.5v-293z" />
<glyph unicode="9" horiz-adv-x="622" d="M66 858v406q0 168 67.5 247.5t174 79.5t175 -78.5t68.5 -248.5v-963q0 -168 -67.5 -248t-174 -80t-174 78t-67.5 250v117h127v-172q0 -86 35.5 -121t78.5 -35t79 35t36 121v444l-30 -42q-15 -22 -35.5 -39t-48 -27.5t-64.5 -10.5q-35 0 -68 13.5t-57.5 46.5t-39.5 88 t-15 139zM193 815q0 -86 35.5 -121t78.5 -35t79 44.5t36 111.5l2 504q0 86 -37 121t-80 35t-78.5 -35t-35.5 -121v-504z" />
<glyph unicode=":" horiz-adv-x="280" d="M47 66q0 43 28.5 65.5t67.5 22.5q43 0 64.5 -27t21.5 -68q0 -39 -29.5 -59t-64.5 -20t-61.5 27.5t-26.5 58.5zM47 788q0 43 28.5 66t67.5 23q43 0 64.5 -27t21.5 -68q0 -39 -29.5 -59.5t-64.5 -20.5t-61.5 27.5t-26.5 58.5z" />
<glyph unicode=";" horiz-adv-x="280" d="M-94 -276l180 446h154l-260 -446h-74zM47 788q0 43 28.5 66t67.5 23q43 0 64.5 -27t21.5 -68q0 -39 -29.5 -59.5t-64.5 -20.5t-61.5 27.5t-26.5 58.5z" />
<glyph unicode="&#x3c;" horiz-adv-x="346" d="M12 608l201 398h129l-199 -396l199 -424h-131z" />
<glyph unicode="=" horiz-adv-x="638" d="M53 520v115h537v-115h-537zM53 766v115h537v-115h-537z" />
<glyph unicode="&#x3e;" horiz-adv-x="346" d="M10 186l199 396l-199 424h131l199 -422l-201 -398h-129z" />
<glyph unicode="?" horiz-adv-x="598" d="M45 1061v229q0 84 17.5 142.5t50 95.5t76.5 53t98 16q106 0 173.5 -68.5t67.5 -238.5v-211q0 -63 -10 -116.5t-34.5 -93.5t-65.5 -67.5t-105 -39.5v-455h-127v563q10 -4 20 -4h19q23 0 52.5 5.5t57 19.5t47 40.5t19.5 69.5v345q0 43 -10 69.5t-25.5 40.5t-36 19.5 t-42.5 5.5q-20 0 -42 -5.5t-37 -19.5t-25.5 -40.5t-10.5 -69.5v-285h-127zM164 66q0 43 28.5 65.5t67.5 22.5q43 0 64.5 -27t21.5 -68q0 -39 -29.5 -59t-64.5 -20t-61.5 27.5t-26.5 58.5z" />
<glyph unicode="@" horiz-adv-x="1363" d="M43 360q0 199 45 391.5t135 345t224.5 246t312.5 93.5q145 0 250.5 -60.5t174 -159t102.5 -226.5t34 -263q0 -125 -27.5 -252t-82 -229.5t-135.5 -168t-189 -65.5q-78 0 -118 40t-48 118q-14 -29 -38 -52.5t-50.5 -41t-54 -27.5t-52.5 -10q-53 0 -77.5 28.5t-24.5 94.5 q0 68 25 184l73 348q18 86 33.5 145.5t36 96.5t48.5 54.5t69 17.5q53 0 79.5 -31t49.5 -70l16 82h123l-69 -322l-46 -218l-28 -136l-15 -72l-5 -30q-1 -6 -1 -8q0 -16 2 -34.5t9 -35t23.5 -27t45.5 -10.5q76 0 133 62.5t96 156t59.5 204t20.5 204.5q0 123 -27.5 231.5 t-83 189.5t-138.5 129t-193 48q-147 0 -260 -85t-188.5 -222t-114.5 -306t-39 -339q0 -166 36.5 -291t101 -208t155 -124t194.5 -41q100 0 169 23.5t140 68.5l29 -106q-41 -25 -78 -43.5t-77 -31.5t-84 -19.5t-99 -6.5q-137 0 -248.5 54.5t-189.5 154t-121 241.5t-43 320z M551 213q0 -61 53 -61q29 0 58.5 34.5t48.5 120.5l96 451q8 35 8 67q0 63 -55 64q-43 0 -65.5 -35t-41.5 -121l-90 -426q-12 -57 -12 -94z" />
<glyph unicode="A" horiz-adv-x="567" d="M0 0l211 1569h143l213 -1569h-127l-45 389h-223l-45 -389h-127zM190 516h187l-86 813q0 29 -2 56.5t-6 56.5q-6 -55 -7 -113z" />
<glyph unicode="B" horiz-adv-x="641" d="M82 0v1569h194q150 0 214.5 -78t64.5 -250v-197q0 -39 -6 -77.5t-23.5 -70.5t-46 -55.5t-73.5 -33.5q45 -8 76.5 -32.5t52 -58.5t30.5 -76t10 -85v-227q0 -172 -64.5 -250t-213.5 -78h-215zM209 117h125q59 0 87 34.5t28 120.5v322q0 86 -38 121t-98 35h-104v-633z M209 862h104q59 0 87 35t28 121v278q0 86 -27.5 121t-87.5 35h-104v-590z" />
<glyph unicode="C" horiz-adv-x="616" d="M72 301v967q0 102 24.5 165.5t61.5 99.5t79 49t76.5 13t76.5 -12t79 -48t61.5 -99.5t24.5 -167.5v-246h-127v301q0 86 -36 121t-79 35t-78.5 -35t-35.5 -121v-1077q0 -86 35.5 -121t78.5 -35t79 35t36 121v278h127v-223q0 -104 -24.5 -167.5t-61.5 -99.5t-79 -48.5 t-76.5 -12.5t-76.5 13.5t-79 49.5t-61.5 99.5t-24.5 165.5z" />
<glyph unicode="D" horiz-adv-x="626" d="M82 0v1569h194q74 0 127.5 -12.5t87 -48t49 -99t15.5 -168.5v-913q0 -104 -15.5 -168t-49 -99.5t-87 -48t-127.5 -12.5h-194zM209 117h104q59 0 87 34.5t28 120.5v1024q0 86 -27.5 121t-87.5 35h-104v-1335z" />
<glyph unicode="E" d="M82 0v1569h418v-127h-291v-588h276v-127h-276v-600h291v-127h-418z" />
<glyph unicode="F" horiz-adv-x="509" d="M82 0v1569h418v-127h-291v-588h276v-127h-276v-727h-127z" />
<glyph unicode="G" horiz-adv-x="641" d="M72 301v967q0 102 18.5 165.5t51 99.5t78.5 49t104 13q55 0 102 -12t80 -48t51 -99.5t18 -167.5v-244h-126v299q0 86 -37 121t-88.5 35t-88 -35t-36.5 -121v-1077q0 -86 36.5 -121t88.5 -35q47 0 74.5 12.5t50.5 49.5v493h-140v127h266v-641q-12 -25 -29.5 -53.5t-45 -51 t-70.5 -38t-106 -15.5q-57 0 -103.5 13.5t-79 49.5t-51 99.5t-18.5 165.5z" />
<glyph unicode="H" horiz-adv-x="647" d="M82 0v1569h127v-705h229v705h127v-1569h-127v737h-229v-737h-127z" />
<glyph unicode="I" horiz-adv-x="290" d="M82 0v1569h127v-1569h-127z" />
<glyph unicode="J" horiz-adv-x="290" d="M-35 -276h2q43 0 79 34.5t36 120.5v1690h127v-1635q0 -104 -24.5 -167.5t-61.5 -99.5t-79 -48t-77 -12h-2v117z" />
<glyph unicode="K" horiz-adv-x="616" d="M82 0v1569h127v-1569h-127zM211 784l250 785h127l-238 -778l277 -791h-127z" />
<glyph unicode="L" horiz-adv-x="428" d="M82 0v1569h127v-1442h209v-127h-336z" />
<glyph unicode="M" horiz-adv-x="901" d="M82 0v1569h194l164 -1100l11 -141l10 143l164 1098h194v-1569h-127v1229l15 112l-33 -108l-205 -1233h-61l-181 1233l-32 108l14 -112v-1229h-127z" />
<glyph unicode="N" horiz-adv-x="692" d="M82 0v1569h121l264 -1118l41 -115l-25 115v1118h127v-1569h-131l-252 1069l-32 109l14 -113v-1065h-127z" />
<glyph unicode="O" horiz-adv-x="626" d="M72 301v967q0 102 24.5 165.5t61.5 99.5t79 49t76 13q31 0 73 -12t80 -48t63.5 -99.5t25.5 -167.5v-967q0 -104 -24.5 -167.5t-61.5 -99.5t-79 -48.5t-76.5 -12.5t-76.5 13.5t-79 49.5t-61.5 99.5t-24.5 165.5zM199 246q0 -86 35.5 -121t78.5 -35t79 35t36 121v1077 q0 86 -36 121t-79 35t-78.5 -35t-35.5 -121v-1077z" />
<glyph unicode="P" horiz-adv-x="595" d="M82 0v1569h194q74 0 127.5 -12.5t87 -48t49 -99t15.5 -168.5v-231q0 -104 -15.5 -168t-49 -99.5t-87 -48t-127.5 -12.5h-67v-682h-127zM209 803h104q59 0 87 34.5t28 120.5v334q0 86 -27.5 121t-87.5 35h-104v-645z" />
<glyph unicode="Q" horiz-adv-x="626" d="M72 301v967q0 102 24.5 165.5t61.5 99.5t79 49t76.5 13t76.5 -12t79 -48t61.5 -99.5t24.5 -167.5v-967q0 -123 -34 -191.5t-75 -99.5l54 -114l53 -115q-25 -12 -48 -26l-46 -25q-29 59 -56 122l-53 121q-37 0 -85 8.5t-91 41t-72.5 98t-29.5 180.5zM199 246 q0 -86 35.5 -121t78.5 -35t79 35t36 121v1077q0 86 -36 121t-79 35t-78.5 -35t-35.5 -121v-1077z" />
<glyph unicode="R" horiz-adv-x="595" d="M82 0v1569h219q74 0 123 -12.5t78.5 -48t41 -99t11.5 -168.5v-231q0 -121 -33 -199t-119 -100l193 -711h-127l-184 686h-76v-686h-127zM209 803h104q59 0 87 34.5t28 120.5v338q0 86 -27.5 121t-87.5 35h-104v-649z" />
<glyph unicode="S" horiz-adv-x="606" d="M61 1092v176q0 102 25 165.5t61.5 99.5t78.5 49t77 13t77 -12t79 -48t61.5 -99.5t24.5 -167.5v-246h-127v301q0 86 -36 121t-79 35t-79 -35t-36 -121v-213q0 -70 27 -123t65.5 -99t86 -88t86.5 -89t65.5 -102.5t26.5 -129.5v-178q0 -86 -11.5 -147.5t-39 -101.5 t-73.5 -59.5t-118 -19.5t-118 19.5t-73.5 60.5t-39 102.5t-11.5 145.5v223h127v-278q0 -86 36 -121t79 -35t79 35t36 121v211q0 53 -26.5 100t-65.5 93t-86 93.5t-86 99.5t-66 113.5t-27 135.5z" />
<glyph unicode="T" horiz-adv-x="536" d="M10 1442v127h516v-127h-194v-1442h-127v1442h-195z" />
<glyph unicode="U" horiz-adv-x="634" d="M76 301v1268h127v-1315q0 -86 35.5 -121t78.5 -35t79 35t36 121v1315h127v-1268q0 -104 -24.5 -167.5t-61.5 -99.5t-79 -48.5t-76.5 -12.5t-76.5 13.5t-79 49.5t-61.5 99.5t-24.5 165.5z" />
<glyph unicode="V" horiz-adv-x="526" d="M0 1569h127l131 -1309q0 -57 6 -113q6 55 6 113l129 1309h127l-190 -1569h-143z" />
<glyph unicode="W" horiz-adv-x="888" d="M0 1569h127l111 -1260q0 -57 6 -112q6 55 6 112l129 1260h131l129 -1252q0 -25 2 -50t6 -50q4 25 5 50.5t3 49.5l107 1252h127l-170 -1569h-144l-122 1180q-4 41 -4 72.5t-5 72.5q-4 -41 -4 -72.5t-4 -72.5l-121 -1180h-143z" />
<glyph unicode="X" horiz-adv-x="618" d="M0 0l274 807l-262 762h129l178 -576l166 576h129l-233 -764l237 -805h-126l-173 629l-192 -629h-127z" />
<glyph unicode="Y" horiz-adv-x="569" d="M0 1571h129l145 -703l166 705h129l-239 -985v-588h-123v586z" />
<glyph unicode="Z" horiz-adv-x="524" d="M20 0v127l330 1315h-311v127h465v-37l-352 -1405h352v-127h-484z" />
<glyph unicode="[" horiz-adv-x="372" d="M96 -348v1921h279v-107h-160v-1702h160v-112h-279z" />
<glyph unicode="\" horiz-adv-x="516" d="M-117 1573h117l510 -1614h-119z" />
<glyph unicode="]" horiz-adv-x="372" d="M-2 -233h156v1699h-156v107h278v-1919h-278v113z" />
<glyph unicode="^" horiz-adv-x="673" d="M0 1049v110h113v115q0 168 47 237.5t129 69.5q23 0 42 -3t40 -7v-103h-62q-43 0 -58 -34.5t-15 -120.5v-154h200v115q0 168 47 237.5t129 69.5q23 0 42.5 -3t39.5 -7v-103h-61q-43 0 -58.5 -34.5t-15.5 -120.5v-154h133v-110h-133v-1049h-123v1049h-200v-1049h-123v1049 h-113z" />
<glyph unicode="_" horiz-adv-x="456" d="M0 -57v114h457v-114h-457z" />
<glyph unicode="`" horiz-adv-x="200" d="M-20 1522h145l94 -207h-110z" />
<glyph unicode="a" horiz-adv-x="520" d="M61 293v80q0 84 13.5 140t37 90t56.5 47.5t72 13.5h92v237q0 86 -15.5 121t-58.5 35t-58.5 -35t-15.5 -121v-110h-123v71q0 86 9.5 144.5t33 94.5t61.5 52t93 16q113 0 155 -69.5t42 -237.5v-862h-97l-26 94q-6 -14 -17.5 -33.5t-28 -36t-37 -27.5t-46.5 -11 q-82 0 -112 68.5t-30 238.5zM184 254q0 -86 15.5 -121t58.5 -35t58.5 42t15.5 114v313h-74q-43 0 -58.5 -55t-15.5 -141v-117z" />
<glyph unicode="b" horiz-adv-x="536" d="M82 0v1571h123v-492q29 39 62.5 70t86.5 31q41 0 64.5 -17.5t36 -54.5t16.5 -96.5t4 -145.5v-573q0 -170 -29.5 -238.5t-111.5 -68.5q-27 0 -47.5 11t-37 27.5t-27.5 36t-17 33.5l-27 -94h-96zM205 254q0 -86 22.5 -121t51.5 -35q43 0 58 35t15 121v651q0 86 -15 121 t-58 35q-41 0 -57.5 -31t-16.5 -100v-676z" />
<glyph unicode="c" horiz-adv-x="505" d="M61 289v590q0 168 42 237.5t155 69.5q55 0 93 -16.5t61.5 -52.5t33 -94t9.5 -144v-144h-123v183q0 86 -15.5 120.5t-58.5 34.5t-58.5 -34.5t-15.5 -120.5v-668q0 -86 15.5 -121t58.5 -35t58.5 35t15.5 121v205h123v-166q0 -86 -9.5 -144.5t-33 -94.5t-61.5 -52t-93 -16 q-113 0 -155 69.5t-42 237.5z" />
<glyph unicode="d" horiz-adv-x="536" d="M61 293v573q0 86 4.5 145.5t16.5 96.5t35.5 54.5t64.5 17.5q53 0 87 -31t63 -70v492h123v-1571h-97l-26 94q-6 -14 -17.5 -33.5t-28 -36t-37 -27.5t-46.5 -11q-82 0 -112 68.5t-30 238.5zM184 254q0 -86 15.5 -121t58.5 -35q29 0 51.5 35t22.5 121v676q0 70 -16.5 100.5 t-57.5 30.5q-43 0 -58.5 -35t-15.5 -121v-651z" />
<glyph unicode="e" horiz-adv-x="505" d="M61 289v573q0 168 42 237.5t155 69.5q55 0 93 -16t61.5 -52t33 -94.5t9.5 -144.5v-327h-271v-285q0 -86 15.5 -121t58.5 -35t58.5 35t15.5 121v133h123v-94q0 -86 -9.5 -144.5t-33 -94.5t-61.5 -52t-93 -16q-113 0 -155 69.5t-42 237.5zM184 645h148v256q0 86 -15.5 121 t-58.5 35t-58.5 -35t-15.5 -121v-256z" />
<glyph unicode="f" horiz-adv-x="350" d="M0 1049v110h113v115q0 168 47 237.5t129 69.5q23 0 42 -3t40 -7v-103h-62q-43 0 -58 -34.5t-15 -120.5v-154h133v-110h-133v-1049h-123v1049h-113z" />
<glyph unicode="g" horiz-adv-x="512" d="M41 37q0 41 5 69.5t13.5 51t19.5 41t25 37.5q-8 16 -17 40.5t-9 55.5q0 33 14 70.5t49 80.5q-41 35 -60.5 97.5t-19.5 158.5v123q0 168 42 237.5t155 69.5q18 0 28.5 -2t17.5 -5t15.5 -8t20.5 -11h172v-76h-106q23 -35 36 -90t13 -115v-123q0 -170 -63.5 -238.5 t-182.5 -68.5q-12 0 -21.5 -14.5t-9.5 -57.5q0 -16 23.5 -37.5t54.5 -21.5q57 0 95 -16.5t61.5 -52t33 -94t9.5 -142.5v-102q0 -170 -52.5 -239t-165 -69t-154.5 70t-42 238v143zM164 76v-221q0 -86 20.5 -121t63.5 -35t63.5 35t20.5 121v180q0 86 -16.5 131t-67.5 45 t-67.5 -24.5t-16.5 -110.5zM184 700q0 -86 15.5 -120.5t58.5 -34.5t58.5 34.5t15.5 120.5v201q0 86 -15.5 121t-58.5 35t-58.5 -35t-15.5 -121v-201z" />
<glyph unicode="h" horiz-adv-x="540" d="M82 0v1571h123v-492q61 100 110 101q82 0 121 -71t39 -243v-866h-123v905q0 86 -15 121t-58 35q-41 0 -57.5 -31t-16.5 -100v-930h-123z" />
<glyph unicode="i" horiz-adv-x="266" d="M49 1411q0 39 30 59.5t64.5 20.5t61 -27.5t26.5 -58.5q0 -43 -28.5 -65.5t-67.5 -22.5q-43 0 -64.5 26.5t-21.5 67.5zM72 0v1161h123v-1161h-123z" />
<glyph unicode="j" horiz-adv-x="266" d="M31 -408q27 86 34 173.5t7 173.5v1222h123v-1231q0 -86 -7.5 -169t-33.5 -169h-123zM47 1411q0 39 29.5 59.5t64.5 20.5t61.5 -27.5t26.5 -58.5q0 -43 -28.5 -65.5t-67.5 -22.5q-43 0 -64.5 26.5t-21.5 67.5z" />
<glyph unicode="k" horiz-adv-x="546" d="M82 0v1569h123v-1569h-123zM207 594l209 567h127l-201 -561l199 -600h-125z" />
<glyph unicode="l" horiz-adv-x="286" d="M82 0v1571h123v-1571h-123z" />
<glyph unicode="m" horiz-adv-x="800" d="M72 0v1161h96l27 -94q29 47 53 78t76 31q45 0 77.5 -31t49.5 -103q20 63 55 98.5t88 35.5q82 0 111.5 -69t29.5 -239v-868h-123v907q0 86 -15 121t-58 35t-58.5 -42t-15.5 -114v-907h-123v928q0 86 -15.5 110.5t-58.5 24.5t-58 -42t-15 -114v-907h-123z" />
<glyph unicode="n" d="M72 4v1157h102l21 -82q61 100 110 101q82 0 121 -71t39 -243v-862h-123v901q0 86 -15.5 121t-58.5 35q-41 0 -57 -31t-16 -100v-926h-123z" />
<glyph unicode="o" horiz-adv-x="516" d="M61 289v573q0 168 42 237.5t155 69.5q55 0 93 -16t61.5 -52t33 -94.5t9.5 -144.5v-573q0 -86 -9.5 -144.5t-33 -94.5t-61.5 -52t-93 -16q-113 0 -155 69.5t-42 237.5zM184 250q0 -86 15.5 -121t58.5 -35t58.5 35t15.5 121v651q0 86 -15.5 121t-58.5 35t-58.5 -35 t-15.5 -121v-651z" />
<glyph unicode="p" horiz-adv-x="526" d="M72 -408v1571h96l27 -94q6 16 17 34.5t27.5 35t37 28t47.5 11.5q82 0 111.5 -69t29.5 -239v-573q0 -86 -4 -145.5t-16.5 -96.5t-36 -54t-64.5 -17q-53 0 -87 30.5t-62 69.5v-492h-123zM195 233q0 -70 16 -100.5t57 -30.5q43 0 58.5 35t15.5 121v651q0 86 -15.5 121 t-58.5 35q-29 0 -51 -35t-22 -121v-676z" />
<glyph unicode="q" horiz-adv-x="526" d="M61 297v573q0 170 30 239t112 69q27 0 47 -11.5t36.5 -28t28 -35t17.5 -34.5l26 94h97v-1571h-123v492q-29 -39 -62.5 -69.5t-87.5 -30.5q-41 0 -64.5 17t-35.5 54t-16.5 96.5t-4.5 145.5zM184 258q0 -86 15.5 -121t58.5 -35q41 0 57.5 31t16.5 100v676q0 86 -22.5 121 t-51.5 35q-43 0 -58.5 -35t-15.5 -121v-651z" />
<glyph unicode="r" horiz-adv-x="411" d="M72 0v1161h96l27 -94q6 16 17 34.5t27.5 35t37 28t47.5 11.5q16 0 29.5 -4.5t23.5 -8.5l20 -12l-6 -135q-29 6 -52.5 10t-45.5 4q-45 0 -71.5 -31.5t-26.5 -132.5v-866h-123z" />
<glyph unicode="s" horiz-adv-x="495" d="M41 311v72h123v-131q0 -86 17.5 -121t76.5 -35q43 0 58.5 40t15.5 157q0 51 -21.5 94t-54.5 82l-70 79q-37 40 -69.5 85t-54 99t-21.5 124q0 168 45 248t172 80q113 0 155 -78t42 -250v-82h-123v141q0 86 -15.5 121t-58.5 35q-29 0 -47 -9t-28.5 -30.5t-14.5 -58.5 t-4 -94q0 -68 21.5 -117t54 -88t69.5 -75t70 -76t54.5 -91t21.5 -121q0 -172 -42 -249.5t-155 -77.5q-127 0 -172 79.5t-45 247.5z" />
<glyph unicode="t" horiz-adv-x="360" d="M0 1049v112h92v287h123v-287h133v-112h-133v-797q0 -86 15.5 -121t58.5 -35h61v-102q-20 -4 -39.5 -7t-42.5 -3q-55 0 -90 16t-54.5 53t-25.5 95.5t-6 142.5v758h-92z" />
<glyph unicode="u" d="M66 297v864h122v-903q0 -86 15.5 -121t58.5 -35q41 0 57.5 31t16.5 100v928h123v-1159h-103l-20 82q-61 -100 -111 -100q-82 0 -120.5 70.5t-38.5 242.5z" />
<glyph unicode="v" horiz-adv-x="448" d="M0 1161h131l86 -885q0 -57 6 -112q6 55 6 112l88 885h132l-156 -1161h-135z" />
<glyph unicode="w" horiz-adv-x="772" d="M0 1161h131l86 -885q0 -57 6 -112q6 55 6 112l88 885h138l86 -885q0 -57 6 -112q6 55 6 112l88 885h131l-156 -1161h-131l-90 766q-4 33 -5 64.5t-5 64.5q-2 -33 -5 -65.5t-3 -65.5l-88 -764h-131z" />
<glyph unicode="x" horiz-adv-x="473" d="M0 0l182 594l-180 567h121l113 -373l108 373h125l-188 -569l192 -592h-121l-125 408l-108 -408h-119z" />
<glyph unicode="y" horiz-adv-x="468" d="M0 1161h131l98 -885q0 -27 1 -53t3 -51l5 12q2 23 3 46.5t1 45.5l96 885h131l-238 -1571h-131l58 361z" />
<glyph unicode="z" horiz-adv-x="471" d="M16 0v109l289 929h-250v123h400v-78l-295 -960h270v-123h-414z" />
<glyph unicode="{" horiz-adv-x="630" d="M0 1049v110h113v115q0 168 47 237.5t129 69.5q23 0 42 -3t40 -7v-103h-62q-43 0 -58 -34.5t-15 -120.5v-154h133v-110h-133v-1049h-123v1049h-113zM414 1411q0 39 29.5 59.5t64.5 20.5t61.5 -27.5t26.5 -58.5q0 -43 -28.5 -65.5t-67.5 -22.5q-43 0 -64.5 26.5t-21.5 67.5 zM436 0v1161h123v-1161h-123z" />
<glyph unicode="|" horiz-adv-x="290" d="M82 -410v1979h127v-1979h-127z" />
<glyph unicode="}" horiz-adv-x="643" d="M0 1049v110h113v115q0 168 47 237.5t129 69.5q23 0 42 -3t40 -7v-103h-62q-43 0 -58 -34.5t-15 -120.5v-154h133v-110h-133v-1049h-123v1049h-113zM438 0v1571h123v-1571h-123z" />
<glyph unicode="~" horiz-adv-x="954" d="M0 1049v110h113v115q0 168 47 237.5t129 69.5q23 0 42 -3t40 -7v-103h-62q-43 0 -58 -34.5t-15 -120.5v-154h200v115q0 168 47 237.5t129 69.5q23 0 42.5 -3t39.5 -7v-103h-61q-43 0 -58.5 -34.5t-15.5 -120.5v-154h133v-110h-133v-1049h-123v1049h-200v-1049h-123v1049 h-113zM737 1411q0 39 30 59.5t64.5 20.5t61.5 -27.5t27 -58.5q0 -43 -29 -65.5t-68 -22.5q-43 0 -64.5 26.5t-21.5 67.5zM760 0v1161h123v-1161h-123z" />
<glyph unicode="&#xa1;" horiz-adv-x="260" d="M41 1104q0 39 29.5 59.5t64.5 20.5t61.5 -28t26.5 -58q0 -43 -28.5 -65.5t-67.5 -22.5q-43 0 -64.5 26.5t-21.5 67.5zM55 -408l31 1262h82l29 -1262h-142z" />
<glyph unicode="&#xa2;" horiz-adv-x="505" d="M61 508v590q0 141 29 211.5t105 87.5v174h122v-172q78 -16 108 -86t30 -215v-144h-123v183q0 86 -15.5 120.5t-58.5 34.5t-58.5 -34.5t-15.5 -120.5v-668q0 -86 15.5 -121t58.5 -35t58.5 35t15.5 121v205h123v-166q0 -147 -30 -217t-108 -86v-205h-122v207 q-76 18 -105 89t-29 212z" />
<glyph unicode="&#xa3;" horiz-adv-x="677" d="M53 0v127h72v393h-72v115h72v131h-72v115h72v387q0 102 24.5 165.5t61.5 99.5t79 49t76.5 13t76.5 -12t79 -48t61.5 -99.5t24.5 -167.5v-105h-127v160q0 86 -35.5 121t-78.5 35t-79 -35t-36 -121v-442h338v-115h-338v-131h338v-115h-338v-393h352v-127h-551z" />
<glyph unicode="&#xa4;" horiz-adv-x="651" d="M27 848v115h79v305q0 102 25 165.5t61.5 99.5t78.5 49t77 13t77 -12t79 -48t61.5 -99.5t24.5 -167.5v-103h-127v158q0 86 -36 121t-79 35t-79 -35t-36 -121v-360h330v-115h-330v-131h332v-115h-332v-356q0 -86 36 -121t79 -35t79 35t36 121v135h127v-80 q0 -104 -24.5 -167.5t-61.5 -99.5t-79 -48.5t-77 -12.5t-77 13.5t-78.5 49.5t-61.5 99.5t-25 165.5v301h-77v115h77v131h-79z" />
<glyph unicode="&#xa5;" horiz-adv-x="569" d="M0 1571h129l145 -703l166 705h129l-223 -918h203v-114h-219v-131h219v-115h-219v-295h-123v295h-195v115h195v131h-195v114h181z" />
<glyph unicode="&#xa6;" horiz-adv-x="290" d="M82 356h127v-766h-127v766zM82 764v805h127v-805h-127z" />
<glyph unicode="&#xa7;" horiz-adv-x="704" d="M0 1049v110h113v115q0 168 47 237.5t129 69.5q23 0 42 -3t40 -7v-103h-62q-43 0 -58 -34.5t-15 -120.5v-154h200v289h123v-289h133v-110h-133v-797q0 -86 15.5 -121t58.5 -35h61v-102q-21 -4 -40 -7t-42 -3q-55 0 -90 16t-54 53t-25.5 95.5t-6.5 142.5v758h-200v-1049 h-123v1049h-113z" />
<glyph unicode="&#xa8;" horiz-adv-x="522" d="M35 1380q0 43 28.5 65.5t67.5 22.5q43 0 64.5 -26.5t21.5 -67.5q0 -39 -29.5 -59.5t-64.5 -20.5t-61.5 27.5t-26.5 58.5zM301 1380q0 43 28.5 65.5t67.5 22.5q43 0 64.5 -26.5t21.5 -67.5q0 -39 -29.5 -59.5t-64.5 -20.5t-61.5 27.5t-26.5 58.5z" />
<glyph unicode="&#xa9;" horiz-adv-x="1353" d="M63 780q0 168 48.5 316.5t131.5 259t195.5 174t239.5 63.5t239.5 -63.5t195.5 -174t131 -259t48 -316.5t-48 -315.5t-131 -258t-195.5 -174t-239.5 -63.5t-239.5 63.5t-195.5 174t-131.5 258t-48.5 315.5zM164 782.5q0 -143.5 39 -272.5t108.5 -226.5t162.5 -154.5 t201.5 -57t202 57t163 154.5t108.5 226.5t39 272.5t-39 272.5t-108.5 226t-163 154.5t-202 57.5t-201.5 -57.5t-162.5 -154.5t-108.5 -226t-39 -272.5zM477 520v508q0 168 42 237.5t155 69.5q55 0 93 -16t61.5 -52t32.5 -94.5t9 -144.5v-143h-122v182q0 86 -15.5 121 t-58.5 35t-58.5 -35t-15.5 -121v-586q0 -86 15.5 -120.5t58.5 -34.5t58.5 34.5t15.5 120.5v205h122v-166q0 -86 -9 -144.5t-32.5 -94t-61.5 -52t-93 -16.5q-113 0 -155 69.5t-42 237.5z" />
<glyph unicode="&#xaa;" horiz-adv-x="526" d="M61 293v573q0 86 4.5 145.5t16.5 96.5t35.5 54.5t64.5 17.5q53 0 87 -31t63 -70v82h123v-1161h-97l-26 94q-6 -14 -17.5 -33.5t-28 -36t-37 -27.5t-46.5 -11q-82 0 -112 68.5t-30 238.5zM184 254q0 -86 15.5 -121t58.5 -35q29 0 51.5 35t22.5 121v676q0 70 -16.5 100.5 t-57.5 30.5q-43 0 -58.5 -35t-15.5 -121v-651z" />
<glyph unicode="&#xab;" horiz-adv-x="573" d="M29 590l149 346h127l-151 -346l151 -342h-127zM254 590l152 346h124l-151 -346l149 -342h-120z" />
<glyph unicode="&#xac;" horiz-adv-x="641" d="M72 301v967q0 102 18.5 165.5t51 99.5t78.5 49t104 13q55 0 102 -12t80 -48t51 -99.5t18 -167.5v-244h-126v299q0 86 -37 121t-88.5 35t-88 -35t-36.5 -121v-1077q0 -86 36.5 -121t88.5 -35q47 0 74.5 12.5t50.5 49.5v575h-140v127h266v-723q-12 -25 -29.5 -53.5t-45 -51 t-70.5 -38t-106 -15.5q-57 0 -103.5 13.5t-79 49.5t-51 99.5t-18.5 165.5z" />
<glyph unicode="&#xad;" horiz-adv-x="509" d="M49 541v114h408v-114h-408z" />
<glyph unicode="&#xae;" horiz-adv-x="1353" d="M63 780q0 168 48.5 316.5t131.5 259t195.5 174t239.5 63.5t239.5 -63.5t195.5 -174t131 -259t48 -316.5t-48 -315.5t-131 -258t-195.5 -174t-239.5 -63.5t-239.5 63.5t-195.5 174t-131.5 258t-48.5 315.5zM164 782.5q0 -143.5 39 -272.5t108.5 -226.5t162.5 -154.5 t202 -57q72 0 137.5 26.5t122.5 73.5h-123l-137 510h-76v-510h-127v1161h219q74 0 123 -12t79 -48t41 -99.5t11 -167.5q0 -121 -32.5 -199t-118.5 -100l143 -533q115 94 182.5 255t67.5 353q0 143 -39 272.5t-108.5 226.5t-163 154.5t-202 57.5t-201.5 -57.5t-162.5 -154.5 t-108.5 -226t-39 -272.5zM600 799h105q59 0 86.5 34.5t27.5 120.5v107q0 86 -27.5 121t-86.5 35h-105v-418z" />
<glyph unicode="&#xaf;" horiz-adv-x="954" d="M0 1049v110h113v115q0 168 47 237.5t129 69.5q23 0 42 -3t40 -7v-103h-62q-43 0 -58 -34.5t-15 -120.5v-154h200v115q0 168 47 237.5t129 69.5q23 0 42.5 -3t39.5 -7v-103h-61q-43 0 -58.5 -34.5t-15.5 -120.5v-154h133v-110h-133v-1049h-123v1049h-200v-1049h-123v1049 h-113zM760 0v1571h123v-1571h-123z" />
<glyph unicode="&#xb0;" horiz-adv-x="1179" d="M82 0v1569h121l264 -1118l41 -115l-25 115v1118h127v-1569h-131l-252 1069l-32 109l14 -113v-1065h-127zM725 743v349q0 168 42 237.5t155 69.5q55 0 93 -16.5t61.5 -52.5t32.5 -94t9 -144v-349q0 -86 -9 -144t-32.5 -94t-61.5 -52.5t-93 -16.5q-113 0 -155 69.5 t-42 237.5zM752 172v115h348v-115h-348zM848 705q0 -86 15.5 -121t58.5 -35t58 34.5t15 121.5v425q0 86 -15 121t-58 35t-58.5 -34.5t-15.5 -121.5v-425z" />
<glyph unicode="&#xb1;" horiz-adv-x="638" d="M49 383v115h537v-115h-537zM53 827v115h211v211h115v-211h211v-115h-211v-211h-115v211h-211z" />
<glyph unicode="&#xb2;" horiz-adv-x="575" d="M41 0v176q0 74 26.5 152t65.5 159.5t86 162.5t86 161t65.5 155.5t26.5 143.5v213q0 86 -35.5 121t-78.5 35t-79 -35t-36 -121v-270h-127v215q0 172 67.5 249.5t174 77.5t174 -79.5t67.5 -247.5v-181q0 -70 -26.5 -149.5t-65.5 -162.5t-85 -169t-85 -170t-64.5 -161.5 t-25.5 -147.5h315v-127h-446z" />
<glyph unicode="&#xb3;" horiz-adv-x="610" d="M61 281v221h127v-277q0 -43 10.5 -69.5t26 -41t37 -19.5t41.5 -5q23 0 43.5 5t35.5 19.5t25.5 41t10.5 69.5v396q0 43 -19.5 69.5t-47 40.5t-57.5 19.5t-52 5.5q-10 0 -19.5 -1t-19.5 -3v118q10 -4 19 -4h20q23 0 52.5 5.5t57 19.5t47 40.5t19.5 69.5v345 q0 43 -10.5 69.5t-25.5 40.5t-35.5 19.5t-43.5 5.5q-20 0 -41.5 -5.5t-37 -19.5t-26 -40.5t-10.5 -69.5v-285h-122q-2 16 -3.5 32.5t-1.5 36.5v160q0 84 17.5 142.5t50.5 95.5t77 53t97 16q106 0 174 -68.5t68 -238.5v-211q0 -51 -7.5 -93t-25.5 -73.5t-52 -54t-87 -37.5 q106 -35 139 -104.5t33 -173.5v-262q0 -170 -67.5 -239t-174.5 -69q-53 0 -97 16.5t-77 53.5t-50.5 95.5t-17.5 142.5z" />
<glyph unicode="&#xb4;" horiz-adv-x="200" d="M0 1315l90 207h146l-127 -207h-109z" />
<glyph unicode="&#xb5;" horiz-adv-x="1404" d="M104 0v1184h1184v-1184h-1184zM109 1305v53q0 39 13 53t40 14q35 0 46 -16t11 -49v-17h-47v31q0 14 -2 17.5t-6 3.5q-8 0 -8 -23v-84q0 -14 1 -17t7 -3q4 0 6 3t2 19v25h47v-8q0 -35 -11 -52.5t-44 -17.5t-44 15.5t-11 52.5zM225 1241l23 180h67l29 -180h-49l-2 33h-17 l-4 -33h-47zM266 584l207 -160q4 -4 11.5 -17.5t11.5 -29.5q-4 -10 -11.5 -24.5t-35.5 -43.5l206 45q10 -4 18.5 -9t8.5 -9q0 -2 -2 -4v-207h45v207q-2 2 -2 6q0 8 25 16l206 -45q-25 29 -34 45.5t-13 22.5q4 16 11.5 29.5t11.5 17.5l184 160h-22l-11.5 12t-13.5 10l47 139 l-115 -24q-8 4 -13 11l-9 13l-23 46l-92 -93q-8 -10 -13 -14t-9 -8q-18 8 -23 22l68 230l-68 -23q-4 -2 -14 -8t-10 -12v-2q-10 6 -13.5 9t-9.5 13l-68 137l-69 -137q-4 -10 -9 -13t-14 -9q0 6 -9 13t-13 9l-47 23l47 -230l-25 -22q-6 6 -11 9t-11 13l-92 93l-23 -46 l-12 -15q-4 -5 -11 -9l-114 24l45 -139q-10 -8 -23 -22h-45zM276 1305h15q-2 14 -3 32.5t-3 40.5q-4 -25 -6.5 -43t-2.5 -30zM352 1241v180h37l27 -82v82h41v-180h-41l-25 82v-82h-39zM465 1241l22 180h68l29 -180h-49l-3 33h-18l-2 -33h-47zM514 1305h16q-2 29 -6 77 q-4 -27 -6 -46t-4 -31zM590 1241v180h35q27 0 41 -2t21 -8t9 -18.5t2 -34.5v-64q0 -41 -10 -47t-39 -6h-59zM637 1272q10 0 12 3t2 21v72q0 16 -2 19.5t-12 3.5v-119zM707 1241l22 180h68l28 -180h-49l-2 33h-16l-4 -33h-47zM758 1305h14q-2 29 -6 77q-4 -27 -6 -46t-2 -31z M864 1384v37h103v-37h-27v-143h-47v143h-29zM969 1421h41q10 -49 12 -67q2 14 5 30l7 37h43l-33 -116v-64h-43v64zM1085 1241v180h48q39 0 47 -10t8 -41v-14q0 -25 -9.5 -33t-33.5 -8h-12v-74h-48zM1133 1343h4q12 0 12 17v16q0 14 -16 15v-48zM1200 1241v180h80v-37h-33 v-32h31v-35h-31v-41h35v-35h-82z" />
<glyph unicode="&#xb6;" horiz-adv-x="798" d="M59 831v410q0 104 15.5 168t49.5 99.5t87 48t127 12.5h379v-1747h-127v1626h-101v-1628h-127v684h-24q-74 0 -127 12t-87 48t-49.5 99.5t-15.5 167.5z" />
<glyph unicode="&#xb7;" horiz-adv-x="706" d="M0 1053v110h92v285h123v-285h223v285h123v-285h133v-110h-133v-801q0 -86 15.5 -121t58.5 -35h61v-102q-20 -4 -39.5 -7t-42.5 -3q-55 0 -90 16t-54 53t-25.5 95.5t-6.5 142.5v762h-223v-801q0 -86 15.5 -121t58.5 -35h61v-102q-20 -4 -39.5 -7t-42.5 -3q-55 0 -90 16 t-54.5 53t-25.5 95.5t-6 142.5v762h-92z" />
<glyph unicode="&#xb8;" horiz-adv-x="333" d="M74 -170l86 215h94l-125 -215h-55z" />
<glyph unicode="&#xb9;" horiz-adv-x="405" d="M10 1343v125l211 101h103v-1569h-127v1419z" />
<glyph unicode="&#xba;" horiz-adv-x="516" d="M61 821v348q0 168 42 238t155 70q55 0 93 -16.5t61.5 -52.5t33 -94.5t9.5 -144.5v-348q0 -86 -9.5 -144.5t-33 -94t-61.5 -52t-93 -16.5q-113 0 -155 69.5t-42 237.5zM88 250v115h348v-115h-348zM184 782q0 -86 15.5 -120.5t58.5 -34.5t58.5 34.5t15.5 120.5v426 q0 86 -15.5 121t-58.5 35t-58.5 -35t-15.5 -121v-426z" />
<glyph unicode="&#xbb;" horiz-adv-x="575" d="M41 936h125l151 -346l-153 -342h-121l150 342zM266 248l152 342l-152 346h127l150 -346l-150 -342h-127z" />
<glyph unicode="&#xbf;" horiz-adv-x="573" d="M55 88q0 129 45 210t170 108v454h127v-563q-10 4 -19 4h-20q-20 0 -51 -5t-58.5 -19.5t-47 -41t-19.5 -69.5v-344q0 -43 10.5 -69.5t25.5 -41t36.5 -19.5t42.5 -5q23 0 43 5t35.5 19.5t26 41t10.5 69.5v284h127v-229q0 -84 -17.5 -142.5t-50.5 -95t-77 -53t-97 -16.5 q-106 0 -174 68.5t-68 238.5v211zM238 1108q0 39 29.5 59.5t64.5 20.5t61.5 -27.5t26.5 -58.5q0 -43 -29 -65.5t-67 -22.5q-43 0 -64.5 26.5t-21.5 67.5z" />
<glyph unicode="&#xc0;" horiz-adv-x="567" d="M0 0l211 1569h143l213 -1569h-127l-45 389h-223l-45 -389h-127zM117 1929h145l94 -207h-110zM190 516h187l-86 813q0 29 -2 56.5t-6 56.5q-6 -55 -7 -113z" />
<glyph unicode="&#xc1;" horiz-adv-x="567" d="M0 0l211 1569h143l213 -1569h-127l-45 389h-223l-45 -389h-127zM190 516h187l-86 813q0 29 -2 56.5t-6 56.5q-6 -55 -7 -113zM236 1722l90 207h145l-127 -207h-108z" />
<glyph unicode="&#xc2;" horiz-adv-x="567" d="M0 0l211 1569h143l213 -1569h-127l-45 389h-223l-45 -389h-127zM94 1722l113 207h143l121 -207h-109l-79 127l-74 -127h-115zM190 516h187l-86 813q0 29 -2 56.5t-6 56.5q-6 -55 -7 -113z" />
<glyph unicode="&#xc3;" horiz-adv-x="567" d="M0 0l211 1569h143l213 -1569h-127l-45 389h-223l-45 -389h-127zM82 1722q2 10 7 32t18.5 43.5t38 37.5t63.5 16q35 0 67.5 -15t61.5 -15q16 0 21.5 14t5.5 16l118 -2q-10 -59 -45 -94t-88 -35q-35 0 -62.5 17.5t-58.5 17.5q-16 0 -22 -9t-10 -24h-115zM190 516h187 l-86 813q0 29 -2 56.5t-6 56.5q-6 -55 -7 -113z" />
<glyph unicode="&#xc4;" horiz-adv-x="567" d="M0 0l211 1569h143l213 -1569h-127l-45 389h-223l-45 -389h-127zM59 1788q0 43 29 65.5t68 22.5q43 0 64.5 -26.5t21.5 -67.5q0 -39 -30 -59.5t-64.5 -20.5t-61.5 27.5t-27 58.5zM190 516h187l-86 813q0 29 -2 56.5t-6 56.5q-6 -55 -7 -113zM326 1788q0 43 28.5 65.5 t67.5 22.5q43 0 64.5 -26.5t21.5 -67.5q0 -39 -29.5 -59.5t-64.5 -20.5t-61.5 27.5t-26.5 58.5z" />
<glyph unicode="&#xc5;" horiz-adv-x="567" d="M0 0l211 1569h143l213 -1569h-127l-45 389h-223l-45 -389h-127zM152 1806q0 55 39.5 93t95.5 38q53 0 91 -39.5t38 -93.5q0 -55 -40 -94t-93 -39q-23 0 -46.5 8.5t-42 24.5t-30.5 41.5t-12 60.5zM190 516h187l-86 813q0 29 -2 56.5t-6 56.5q-6 -55 -7 -113zM211 1804 q0 -37 23.5 -55t52 -18t51.5 22q21 21 21 48q0 34 -23 56.5t-53 22.5q-31 -2 -51.5 -24.5t-20.5 -51.5z" />
<glyph unicode="&#xc6;" horiz-adv-x="892" d="M0 0l420 1569h442v-127h-291v-588h277v-127h-277v-600h291v-127h-424l6 389h-223l-96 -389h-125zM256 516h188v840z" />
<glyph unicode="&#xc7;" horiz-adv-x="616" d="M72 301v967q0 102 24.5 165.5t61.5 99.5t79 49t76.5 13t76.5 -12t79 -48t61.5 -99.5t24.5 -167.5v-246h-127v301q0 86 -36 121t-79 35t-78.5 -35t-35.5 -121v-1077q0 -86 35.5 -121t78.5 -35t79 35t36 121v278h127v-223q0 -82 -16.5 -140.5t-42 -95t-58 -56t-63.5 -27.5 l-113 -195h-55l76 188q-35 4 -72 21.5t-67.5 54.5t-51 97.5t-20.5 152.5z" />
<glyph unicode="&#xc8;" d="M82 0v1569h418v-127h-291v-588h276v-127h-276v-600h291v-127h-418zM145 1929h146l94 -207h-111z" />
<glyph unicode="&#xc9;" d="M82 0v1569h418v-127h-291v-588h276v-127h-276v-600h291v-127h-418zM250 1722l90 207h145l-127 -207h-108z" />
<glyph unicode="&#xca;" d="M82 0v1569h418v-127h-291v-588h276v-127h-276v-600h291v-127h-418zM109 1722l112 207h144l120 -207h-108l-80 127l-74 -127h-114z" />
<glyph unicode="&#xcb;" d="M82 0v1569h418v-127h-291v-588h276v-127h-276v-600h291v-127h-418zM86 1788q0 43 28.5 65.5t67.5 22.5q43 0 64.5 -26.5t21.5 -67.5q0 -39 -29.5 -59.5t-64.5 -20.5t-61.5 27.5t-26.5 58.5zM352 1788q0 43 29 65.5t68 22.5q43 0 64.5 -26.5t21.5 -67.5q0 -39 -30 -59.5 t-64.5 -20.5t-61.5 27.5t-27 58.5z" />
<glyph unicode="&#xcc;" horiz-adv-x="290" d="M-35 1929h146l94 -207h-111zM82 0v1569h127v-1569h-127z" />
<glyph unicode="&#xcd;" horiz-adv-x="290" d="M82 0v1569h127v-1569h-127zM88 1722l90 207h146l-127 -207h-109z" />
<glyph unicode="&#xce;" horiz-adv-x="290" d="M-43 1722l113 207h143l121 -207h-109l-80 127l-73 -127h-115zM82 0v1569h127v-1569h-127z" />
<glyph unicode="&#xcf;" horiz-adv-x="290" d="M-78 1788q0 43 29 65.5t67 22.5q43 0 64.5 -26.5t21.5 -67.5q0 -39 -29.5 -59.5t-64.5 -20.5t-61.5 27.5t-26.5 58.5zM82 0v1569h127v-1569h-127zM188 1788q0 43 29 65.5t68 22.5q43 0 64.5 -26.5t21.5 -67.5q0 -39 -30 -59.5t-64.5 -20.5t-61.5 27.5t-27 58.5z" />
<glyph unicode="&#xd0;" horiz-adv-x="628" d="M14 782v115h70v672h195q74 0 127 -12.5t86.5 -48t49 -99t15.5 -168.5v-913q0 -104 -15.5 -168t-49 -99.5t-87 -48t-126.5 -12.5h-195v782h-70zM211 117h104q59 0 87 34.5t28 120.5v1024q0 86 -27.5 121t-87.5 35h-104v-555h121v-115h-121v-665z" />
<glyph unicode="&#xd1;" horiz-adv-x="692" d="M82 0v1569h121l264 -1118l41 -115l-25 115v1118h127v-1569h-131l-252 1069l-32 109l14 -113v-1065h-127zM135 1722q2 10 7 32t18.5 43.5t38 37.5t63.5 16q35 0 67.5 -15t61.5 -15q16 0 21.5 14t5.5 16l119 -2q-10 -59 -45 -94t-89 -35q-35 0 -62.5 17.5t-57.5 17.5 q-16 0 -22.5 -9t-10.5 -24h-115z" />
<glyph unicode="&#xd2;" horiz-adv-x="626" d="M72 301v967q0 102 24.5 165.5t61.5 99.5t79 49t76 13q31 0 73 -12t80 -48t63.5 -99.5t25.5 -167.5v-967q0 -104 -24.5 -167.5t-61.5 -99.5t-79 -48.5t-76.5 -12.5t-76.5 13.5t-79 49.5t-61.5 99.5t-24.5 165.5zM141 1929h146l94 -207h-111zM199 246q0 -86 35.5 -121 t78.5 -35t79 35t36 121v1077q0 86 -36 121t-79 35t-78.5 -35t-35.5 -121v-1077z" />
<glyph unicode="&#xd3;" horiz-adv-x="626" d="M72 301v967q0 102 24.5 165.5t61.5 99.5t79 49t76 13q31 0 73 -12t80 -48t63.5 -99.5t25.5 -167.5v-967q0 -104 -24.5 -167.5t-61.5 -99.5t-79 -48.5t-76.5 -12.5t-76.5 13.5t-79 49.5t-61.5 99.5t-24.5 165.5zM199 246q0 -86 35.5 -121t78.5 -35t79 35t36 121v1077 q0 86 -36 121t-79 35t-78.5 -35t-35.5 -121v-1077zM254 1722l90 207h145l-127 -207h-108z" />
<glyph unicode="&#xd4;" horiz-adv-x="626" d="M72 301v967q0 102 24.5 165.5t61.5 99.5t79 49t76 13q31 0 73 -12t80 -48t63.5 -99.5t25.5 -167.5v-967q0 -104 -24.5 -167.5t-61.5 -99.5t-79 -48.5t-76.5 -12.5t-76.5 13.5t-79 49.5t-61.5 99.5t-24.5 165.5zM125 1722l113 207h143l121 -207h-109l-80 127l-73 -127 h-115zM199 246q0 -86 35.5 -121t78.5 -35t79 35t36 121v1077q0 86 -36 121t-79 35t-78.5 -35t-35.5 -121v-1077z" />
<glyph unicode="&#xd5;" horiz-adv-x="626" d="M72 301v967q0 102 24.5 165.5t61.5 99.5t79 49t76 13q31 0 73 -12t80 -48t63.5 -99.5t25.5 -167.5v-967q0 -104 -24.5 -167.5t-61.5 -99.5t-79 -48.5t-76.5 -12.5t-76.5 13.5t-79 49.5t-61.5 99.5t-24.5 165.5zM113 1722q2 10 7 32t18.5 43.5t38 37.5t63.5 16 q35 0 67.5 -15t61.5 -15q16 0 21 14t5 16l119 -2q-10 -59 -45 -94t-88 -35q-35 0 -62.5 17.5t-58.5 17.5q-16 0 -22.5 -9t-10.5 -24h-114zM199 246q0 -86 35.5 -121t78.5 -35t79 35t36 121v1077q0 86 -36 121t-79 35t-78.5 -35t-35.5 -121v-1077z" />
<glyph unicode="&#xd6;" horiz-adv-x="626" d="M72 301v967q0 102 24.5 165.5t61.5 99.5t79 49t76 13q31 0 73 -12t80 -48t63.5 -99.5t25.5 -167.5v-967q0 -104 -24.5 -167.5t-61.5 -99.5t-79 -48.5t-76.5 -12.5t-76.5 13.5t-79 49.5t-61.5 99.5t-24.5 165.5zM88 1788q0 43 28.5 65.5t67.5 22.5q43 0 64.5 -26.5 t21.5 -67.5q0 -39 -29.5 -59.5t-64.5 -20.5t-61.5 27.5t-26.5 58.5zM199 246q0 -86 35.5 -121t78.5 -35t79 35t36 121v1077q0 86 -36 121t-79 35t-78.5 -35t-35.5 -121v-1077zM354 1788q0 43 29 65.5t68 22.5q43 0 64.5 -26.5t21.5 -67.5q0 -39 -30 -59.5t-64.5 -20.5 t-61.5 27.5t-27 58.5z" />
<glyph unicode="&#xd7;" horiz-adv-x="546" d="M35 623l153 143l-143 154l86 77l143 -153l154 143l78 -86l-154 -143l144 -154l-86 -78l-144 154l-153 -143z" />
<glyph unicode="&#xd8;" horiz-adv-x="626" d="M72 301v967q0 102 24.5 165.5t61.5 99.5t79 49t76 13q25 0 56.5 -7t64.5 -29l25 116h76l-39 -176q27 -37 43 -93t16 -138v-967q0 -104 -24.5 -167.5t-61.5 -99.5t-79 -48.5t-77 -12.5q-29 0 -64.5 9.5t-68.5 31.5l-26 -123h-76l41 195q-23 37 -35 90t-12 125zM199 459 l207 966q-16 29 -41 41.5t-52 12.5q-43 0 -78.5 -35t-35.5 -121v-864zM211 164q16 -41 44 -57.5t58 -16.5q43 0 79 35t36 121v930z" />
<glyph unicode="&#xd9;" horiz-adv-x="634" d="M76 301v1268h127v-1315q0 -86 35.5 -121t78.5 -35t79 35t36 121v1315h127v-1268q0 -104 -24.5 -167.5t-61.5 -99.5t-79 -48.5t-76.5 -12.5t-76.5 13.5t-79 49.5t-61.5 99.5t-24.5 165.5zM150 1929h145l94 -207h-110z" />
<glyph unicode="&#xda;" horiz-adv-x="634" d="M76 301v1268h127v-1315q0 -86 35.5 -121t78.5 -35t79 35t36 121v1315h127v-1268q0 -104 -24.5 -167.5t-61.5 -99.5t-79 -48.5t-76.5 -12.5t-76.5 13.5t-79 49.5t-61.5 99.5t-24.5 165.5zM272 1722l90 207h146l-127 -207h-109z" />
<glyph unicode="&#xdb;" horiz-adv-x="634" d="M76 301v1268h127v-1315q0 -86 35.5 -121t78.5 -35t79 35t36 121v1315h127v-1268q0 -104 -24.5 -167.5t-61.5 -99.5t-79 -48.5t-76.5 -12.5t-76.5 13.5t-79 49.5t-61.5 99.5t-24.5 165.5zM127 1722l113 207h143l121 -207h-109l-80 127l-73 -127h-115z" />
<glyph unicode="&#xdc;" horiz-adv-x="634" d="M76 301v1268h127v-1315q0 -86 35.5 -121t78.5 -35t79 35t36 121v1315h127v-1268q0 -104 -24.5 -167.5t-61.5 -99.5t-79 -48.5t-76.5 -12.5t-76.5 13.5t-79 49.5t-61.5 99.5t-24.5 165.5zM92 1788q0 43 29 65.5t67 22.5q43 0 64.5 -26.5t21.5 -67.5q0 -39 -29.5 -59.5 t-64.5 -20.5t-61.5 27.5t-26.5 58.5zM358 1788q0 43 29 65.5t68 22.5q43 0 64.5 -26.5t21.5 -67.5q0 -39 -30 -59.5t-64.5 -20.5t-61.5 27.5t-27 58.5z" />
<glyph unicode="&#xdd;" horiz-adv-x="569" d="M0 1571h129l145 -703l166 705h129l-239 -985v-588h-123v586zM213 1722l90 207h146l-127 -207h-109z" />
<glyph unicode="&#xde;" horiz-adv-x="595" d="M82 0v1569h127v-328h67q74 0 127.5 -12t87 -48t49 -99.5t15.5 -168.5v-231q0 -104 -15.5 -167.5t-49 -99.5t-87 -48.5t-127.5 -12.5h-67v-354h-127zM209 475h104q59 0 87 35t28 121v334q0 86 -27.5 120.5t-87.5 34.5h-104v-645z" />
<glyph unicode="&#xdf;" horiz-adv-x="645" d="M0 1047v110h113v133q0 168 64.5 237.5t170.5 69.5q98 0 161.5 -61t63.5 -213q0 -80 -28.5 -134t-106.5 -77q90 -33 116 -104.5t26 -173.5v-553q0 -86 -17.5 -144.5t-49.5 -94.5t-74 -52.5t-91 -16.5h-4v107h4q23 0 43.5 5t35.5 19.5t25.5 41t10.5 69.5v702 q0 35 -13.5 58.5t-34 39t-45 25t-46.5 11.5v102q23 4 47 11t44.5 22.5t34 40t13.5 59.5v70q0 43 -10.5 69.5t-25.5 41t-35.5 19.5t-43.5 5q-20 0 -40.5 -6t-37 -29.5t-25.5 -70t-9 -125.5v-1260h-123v1047h-113z" />
<glyph unicode="&#xe0;" horiz-adv-x="520" d="M61 293v80q0 84 13.5 140t37 90t56.5 47.5t72 13.5h92v237q0 86 -15.5 121t-58.5 35t-58.5 -35t-15.5 -121v-110h-123v71q0 86 9.5 144.5t33 94.5t61.5 52t93 16q113 0 155 -69.5t42 -237.5v-862h-97l-26 94q-6 -14 -17.5 -33.5t-28 -36t-37 -27.5t-46.5 -11 q-82 0 -112 68.5t-30 238.5zM98 1522h146l94 -207h-111zM184 254q0 -86 15.5 -121t58.5 -35t58.5 42t15.5 114v313h-74q-43 0 -58.5 -55t-15.5 -141v-117z" />
<glyph unicode="&#xe1;" horiz-adv-x="520" d="M61 293v80q0 84 13.5 140t37 90t56.5 47.5t72 13.5h92v237q0 86 -15.5 121t-58.5 35t-58.5 -35t-15.5 -121v-110h-123v71q0 86 9.5 144.5t33 94.5t61.5 52t93 16q113 0 155 -69.5t42 -237.5v-862h-97l-26 94q-6 -14 -17.5 -33.5t-28 -36t-37 -27.5t-46.5 -11 q-82 0 -112 68.5t-30 238.5zM184 254q0 -86 15.5 -121t58.5 -35t58.5 42t15.5 114v313h-74q-43 0 -58.5 -55t-15.5 -141v-117zM201 1315l90 207h145l-127 -207h-108z" />
<glyph unicode="&#xe2;" horiz-adv-x="520" d="M61 293v80q0 84 13.5 140t37 90t56.5 47.5t72 13.5h92v237q0 86 -15.5 121t-58.5 35t-58.5 -35t-15.5 -121v-110h-123v71q0 86 9.5 144.5t33 94.5t61.5 52t93 16q113 0 155 -69.5t42 -237.5v-862h-97l-26 94q-6 -14 -17.5 -33.5t-28 -36t-37 -27.5t-46.5 -11 q-82 0 -112 68.5t-30 238.5zM72 1315l112 207h144l121 -207h-109l-80 127l-74 -127h-114zM184 254q0 -86 15.5 -121t58.5 -35t58.5 42t15.5 114v313h-74q-43 0 -58.5 -55t-15.5 -141v-117z" />
<glyph unicode="&#xe3;" horiz-adv-x="520" d="M59 1315q2 10 7.5 31.5t18.5 43t37.5 38t63.5 16.5q35 0 68 -15.5t61 -15.5q16 0 21.5 14.5t5.5 16.5l119 -2q-10 -59 -45 -94t-88 -35q-35 0 -62.5 17.5t-58.5 17.5q-16 0 -22.5 -9.5t-10.5 -23.5h-115zM61 293v80q0 84 13.5 140t37 90t56.5 47.5t72 13.5h92v237 q0 86 -15.5 121t-58.5 35t-58.5 -35t-15.5 -121v-110h-123v71q0 86 9.5 144.5t33 94.5t61.5 52t93 16q113 0 155 -69.5t42 -237.5v-862h-97l-26 94q-6 -14 -17.5 -33.5t-28 -36t-37 -27.5t-46.5 -11q-82 0 -112 68.5t-30 238.5zM184 254q0 -86 15.5 -121t58.5 -35t58.5 42 t15.5 114v313h-74q-43 0 -58.5 -55t-15.5 -141v-117z" />
<glyph unicode="&#xe4;" horiz-adv-x="520" d="M35 1380q0 43 28.5 65.5t67.5 22.5q43 0 64.5 -26.5t21.5 -67.5q0 -39 -29.5 -59.5t-64.5 -20.5t-61.5 27.5t-26.5 58.5zM61 293v80q0 84 13.5 140t37 90t56.5 47.5t72 13.5h92v237q0 86 -15.5 121t-58.5 35t-58.5 -35t-15.5 -121v-110h-123v71q0 86 9.5 144.5t33 94.5 t61.5 52t93 16q113 0 155 -69.5t42 -237.5v-862h-97l-26 94q-6 -14 -17.5 -33.5t-28 -36t-37 -27.5t-46.5 -11q-82 0 -112 68.5t-30 238.5zM184 254q0 -86 15.5 -121t58.5 -35t58.5 42t15.5 114v313h-74q-43 0 -58.5 -55t-15.5 -141v-117zM301 1380q0 43 28.5 65.5 t67.5 22.5q43 0 64.5 -26.5t21.5 -67.5q0 -39 -29.5 -59.5t-64.5 -20.5t-61.5 27.5t-26.5 58.5z" />
<glyph unicode="&#xe5;" horiz-adv-x="520" d="M61 293v80q0 84 13.5 140t37 90t56.5 47.5t72 13.5h92v237q0 86 -15.5 121t-58.5 35t-58.5 -35t-15.5 -121v-110h-123v71q0 86 9.5 144.5t33 94.5t61.5 52t93 16q113 0 155 -69.5t42 -237.5v-862h-97l-26 94q-6 -14 -17.5 -33.5t-28 -36t-37 -27.5t-46.5 -11 q-82 0 -112 68.5t-30 238.5zM127 1399q0 55 40 93t95 38q53 0 91 -40t38 -93q0 -55 -40 -94t-93 -39q-23 0 -46.5 8t-41.5 24.5t-30.5 42t-12.5 60.5zM184 254q0 -86 15.5 -121t58.5 -35t58.5 42t15.5 114v313h-74q-43 0 -58.5 -55t-15.5 -141v-117zM186 1397 q0 -37 23.5 -55.5t52.5 -18.5t51 23q21 21 21 48q0 34 -22.5 56.5t-53.5 22.5q-31 -2 -51.5 -24.5t-20.5 -51.5z" />
<glyph unicode="&#xe6;" horiz-adv-x="776" d="M61 293v80q0 84 13.5 140t37 90t56.5 47.5t72 13.5h92v237q0 86 -15.5 121t-58.5 35t-58.5 -35t-15.5 -121v-110h-123v71q0 86 9.5 144.5t33 94.5t61.5 52t93 16q90 0 135 -45q45 45 135 45q55 0 93 -16t62 -52t33 -94.5t9 -144.5v-327h-270v-310q0 -72 16 -101.5 t57 -29.5q43 0 58.5 35t15.5 121v133h123v-94q0 -86 -9 -144.5t-33 -94.5t-61.5 -52t-93.5 -16q-80 0 -124 32.5t-60 112.5q-23 -59 -55.5 -100t-85.5 -41q-82 0 -112 68.5t-30 238.5zM184 254q0 -86 15.5 -121t58.5 -35t58.5 42t15.5 114v313h-74q-43 0 -58.5 -55 t-15.5 -141v-117zM455 645h147v256q0 86 -15.5 121t-58.5 35t-58 -35t-15 -121v-256z" />
<glyph unicode="&#xe7;" horiz-adv-x="505" d="M61 289v590q0 168 42 237.5t155 69.5q55 0 93 -16.5t61.5 -52.5t33 -94t9.5 -144v-144h-123v183q0 86 -15.5 120.5t-58.5 34.5t-58.5 -34.5t-15.5 -120.5v-668q0 -86 15.5 -121t58.5 -35t58.5 35t15.5 121v205h123v-166q0 -145 -30 -215t-106 -86l-102 -178h-55l69 174 q-96 8 -133 78.5t-37 226.5z" />
<glyph unicode="&#xe8;" horiz-adv-x="505" d="M61 289v573q0 168 42 237.5t155 69.5q55 0 93 -16t61.5 -52t33 -94.5t9.5 -144.5v-327h-271v-285q0 -86 15.5 -121t58.5 -35t58.5 35t15.5 121v133h123v-94q0 -86 -9.5 -144.5t-33 -94.5t-61.5 -52t-93 -16q-113 0 -155 69.5t-42 237.5zM92 1522h146l94 -207h-111z M184 645h148v256q0 86 -15.5 121t-58.5 35t-58.5 -35t-15.5 -121v-256z" />
<glyph unicode="&#xe9;" horiz-adv-x="505" d="M61 289v573q0 168 42 237.5t155 69.5q55 0 93 -16t61.5 -52t33 -94.5t9.5 -144.5v-327h-271v-285q0 -86 15.5 -121t58.5 -35t58.5 35t15.5 121v133h123v-94q0 -86 -9.5 -144.5t-33 -94.5t-61.5 -52t-93 -16q-113 0 -155 69.5t-42 237.5zM184 645h148v256q0 86 -15.5 121 t-58.5 35t-58.5 -35t-15.5 -121v-256zM195 1315l90 207h145l-127 -207h-108z" />
<glyph unicode="&#xea;" horiz-adv-x="505" d="M61 289v573q0 168 42 237.5t155 69.5q55 0 93 -16t61.5 -52t33 -94.5t9.5 -144.5v-327h-271v-285q0 -86 15.5 -121t58.5 -35t58.5 35t15.5 121v133h123v-94q0 -86 -9.5 -144.5t-33 -94.5t-61.5 -52t-93 -16q-113 0 -155 69.5t-42 237.5zM63 1315l113 207h143l121 -207 h-108l-80 127l-74 -127h-115zM184 645h148v256q0 86 -15.5 121t-58.5 35t-58.5 -35t-15.5 -121v-256z" />
<glyph unicode="&#xeb;" horiz-adv-x="505" d="M29 1380q0 43 28.5 65.5t67.5 22.5q43 0 64.5 -26.5t21.5 -67.5q0 -39 -29.5 -59.5t-64.5 -20.5t-61.5 27.5t-26.5 58.5zM61 289v573q0 168 42 237.5t155 69.5q55 0 93 -16t61.5 -52t33 -94.5t9.5 -144.5v-327h-271v-285q0 -86 15.5 -121t58.5 -35t58.5 35t15.5 121v133 h123v-94q0 -86 -9.5 -144.5t-33 -94.5t-61.5 -52t-93 -16q-113 0 -155 69.5t-42 237.5zM184 645h148v256q0 86 -15.5 121t-58.5 35t-58.5 -35t-15.5 -121v-256zM295 1380q0 43 28.5 65.5t67.5 22.5q43 0 64.5 -26.5t21.5 -67.5q0 -39 -29.5 -59.5t-64.5 -20.5t-61.5 27.5 t-26.5 58.5z" />
<glyph unicode="&#xec;" horiz-adv-x="266" d="M-41 1522h145l95 -207h-111zM72 0v1161h123v-1161h-123z" />
<glyph unicode="&#xed;" horiz-adv-x="266" d="M72 0v1161h123v-1161h-123zM76 1315l90 207h145l-127 -207h-108z" />
<glyph unicode="&#xee;" horiz-adv-x="266" d="M-55 1315l112 207h144l121 -207h-109l-80 127l-74 -127h-114zM72 0v1161h123v-1161h-123z" />
<glyph unicode="&#xef;" horiz-adv-x="266" d="M-90 1380q0 43 28.5 65.5t67.5 22.5q43 0 64.5 -26.5t21.5 -67.5q0 -39 -29.5 -59.5t-64.5 -20.5t-61.5 27.5t-26.5 58.5zM72 0v1161h123v-1161h-123zM176 1380q0 43 28.5 65.5t67.5 22.5q43 0 64.5 -26.5t21.5 -67.5q0 -39 -29.5 -59.5t-64.5 -20.5t-61.5 27.5 t-26.5 58.5z" />
<glyph unicode="&#xf0;" horiz-adv-x="526" d="M61 289v573q0 168 42 237.5t155 69.5q23 0 40 -3t34 -7v148h-80v69h78q-4 53 -20.5 75t-51.5 22h-61v102q20 4 39.5 7t42.5 3q68 0 112.5 -48t57.5 -161h69v-69h-63v-1018q0 -86 -9.5 -144.5t-33 -94.5t-61.5 -52t-93 -16q-113 0 -155 69.5t-42 237.5zM184 250 q0 -86 15.5 -121t58.5 -35t58.5 35t15.5 121v676q0 72 -16.5 101.5t-57.5 29.5q-43 0 -58.5 -35t-15.5 -121v-651z" />
<glyph unicode="&#xf1;" horiz-adv-x="532" d="M63 1315q2 10 7.5 31.5t18.5 43t38 38t63 16.5q35 0 68 -15.5t61 -15.5q16 0 21.5 14.5t5.5 16.5l119 -2q-10 -59 -45 -94t-88 -35q-35 0 -62.5 17.5t-58.5 17.5q-16 0 -22.5 -9.5t-10.5 -23.5h-115zM72 4v1157h102l21 -82q61 100 110 101q82 0 121 -71t39 -243v-862 h-123v901q0 86 -15.5 121t-58.5 35q-41 0 -57 -31t-16 -100v-926h-123z" />
<glyph unicode="&#xf2;" horiz-adv-x="516" d="M61 289v573q0 168 42 237.5t155 69.5q55 0 93 -16t61.5 -52t33 -94.5t9.5 -144.5v-573q0 -86 -9.5 -144.5t-33 -94.5t-61.5 -52t-93 -16q-113 0 -155 69.5t-42 237.5zM76 1522h145l94 -207h-110zM184 250q0 -86 15.5 -121t58.5 -35t58.5 35t15.5 121v651q0 86 -15.5 121 t-58.5 35t-58.5 -35t-15.5 -121v-651z" />
<glyph unicode="&#xf3;" horiz-adv-x="516" d="M61 289v573q0 168 42 237.5t155 69.5q55 0 93 -16t61.5 -52t33 -94.5t9.5 -144.5v-573q0 -86 -9.5 -144.5t-33 -94.5t-61.5 -52t-93 -16q-113 0 -155 69.5t-42 237.5zM184 250q0 -86 15.5 -121t58.5 -35t58.5 35t15.5 121v651q0 86 -15.5 121t-58.5 35t-58.5 -35 t-15.5 -121v-651zM197 1315l90 207h145l-127 -207h-108z" />
<glyph unicode="&#xf4;" horiz-adv-x="516" d="M61 289v573q0 168 42 237.5t155 69.5q55 0 93 -16t61.5 -52t33 -94.5t9.5 -144.5v-573q0 -86 -9.5 -144.5t-33 -94.5t-61.5 -52t-93 -16q-113 0 -155 69.5t-42 237.5zM63 1315l113 207h143l121 -207h-108l-80 127l-74 -127h-115zM184 250q0 -86 15.5 -121t58.5 -35 t58.5 35t15.5 121v651q0 86 -15.5 121t-58.5 35t-58.5 -35t-15.5 -121v-651z" />
<glyph unicode="&#xf5;" horiz-adv-x="516" d="M55 1315q2 10 7.5 31.5t18.5 43t37.5 38t63.5 16.5q35 0 68 -15.5t61 -15.5q16 0 21.5 14.5t5.5 16.5l119 -2q-10 -59 -45 -94t-88 -35q-35 0 -63 17.5t-58 17.5q-16 0 -22.5 -9.5t-10.5 -23.5h-115zM61 289v573q0 168 42 237.5t155 69.5q55 0 93 -16t61.5 -52t33 -94.5 t9.5 -144.5v-573q0 -86 -9.5 -144.5t-33 -94.5t-61.5 -52t-93 -16q-113 0 -155 69.5t-42 237.5zM184 250q0 -86 15.5 -121t58.5 -35t58.5 35t15.5 121v651q0 86 -15.5 121t-58.5 35t-58.5 -35t-15.5 -121v-651z" />
<glyph unicode="&#xf6;" horiz-adv-x="516" d="M35 1380q0 43 28.5 65.5t67.5 22.5q43 0 64.5 -26.5t21.5 -67.5q0 -39 -29.5 -59.5t-64.5 -20.5t-61.5 27.5t-26.5 58.5zM61 289v573q0 168 42 237.5t155 69.5q55 0 93 -16t61.5 -52t33 -94.5t9.5 -144.5v-573q0 -86 -9.5 -144.5t-33 -94.5t-61.5 -52t-93 -16 q-113 0 -155 69.5t-42 237.5zM184 250q0 -86 15.5 -121t58.5 -35t58.5 35t15.5 121v651q0 86 -15.5 121t-58.5 35t-58.5 -35t-15.5 -121v-651zM301 1380q0 43 28.5 65.5t67.5 22.5q43 0 64.5 -26.5t21.5 -67.5q0 -39 -29.5 -59.5t-64.5 -20.5t-61.5 27.5t-26.5 58.5z" />
<glyph unicode="&#xf7;" horiz-adv-x="638" d="M53 705v114h537v-114h-537zM233 457q0 43 29 65.5t68 22.5q43 0 64.5 -26.5t21.5 -67.5q0 -39 -30 -59.5t-64.5 -20.5t-61.5 27.5t-27 58.5zM233 1057q0 43 29 65.5t68 22.5q43 0 64.5 -26.5t21.5 -67.5q0 -39 -30 -59.5t-64.5 -20.5t-61.5 27.5t-27 58.5z" />
<glyph unicode="&#xf8;" horiz-adv-x="516" d="M61 289v573q0 168 42 237.5t155 69.5q27 0 48.5 -4t39.5 -10l23 100h75l-32 -153q23 -35 33 -94.5t10 -145.5v-573q0 -86 -9.5 -144.5t-33 -94.5t-61.5 -52t-93 -16t-86 14l-22 -98h-76l32 147q-25 37 -35 96.5t-10 147.5zM184 401l133 617q-18 39 -59 39 q-43 0 -58.5 -35t-15.5 -121v-500zM201 127q14 -33 57 -33t58.5 35t15.5 121v483z" />
<glyph unicode="&#xf9;" d="M66 297v864h122v-903q0 -86 15.5 -121t58.5 -35q41 0 57.5 31t16.5 100v928h123v-1159h-103l-20 82q-61 -100 -111 -100q-82 0 -120.5 70.5t-38.5 242.5zM104 1522h146l94 -207h-111z" />
<glyph unicode="&#xfa;" d="M66 297v864h122v-903q0 -86 15.5 -121t58.5 -35q41 0 57.5 31t16.5 100v928h123v-1159h-103l-20 82q-61 -100 -111 -100q-82 0 -120.5 70.5t-38.5 242.5zM209 1315l90 207h145l-127 -207h-108z" />
<glyph unicode="&#xfb;" d="M66 297v864h122v-903q0 -86 15.5 -121t58.5 -35q41 0 57.5 31t16.5 100v928h123v-1159h-103l-20 82q-61 -100 -111 -100q-82 0 -120.5 70.5t-38.5 242.5zM70 1315l112 207h144l120 -207h-108l-80 127l-74 -127h-114z" />
<glyph unicode="&#xfc;" d="M41 1380q0 43 28.5 65.5t67.5 22.5q43 0 64.5 -26.5t21.5 -67.5q0 -39 -29.5 -59.5t-64.5 -20.5t-61.5 27.5t-26.5 58.5zM66 297v864h122v-903q0 -86 15.5 -121t58.5 -35q41 0 57.5 31t16.5 100v928h123v-1159h-103l-20 82q-61 -100 -111 -100q-82 0 -120.5 70.5 t-38.5 242.5zM307 1380q0 43 29 65.5t67 22.5q43 0 64.5 -26.5t21.5 -67.5q0 -39 -29.5 -59.5t-64.5 -20.5t-61.5 27.5t-26.5 58.5z" />
<glyph unicode="&#xfd;" horiz-adv-x="468" d="M0 1161h131l98 -885q0 -27 1 -53t3 -51l5 12q2 23 3 46.5t1 45.5l96 885h131l-238 -1571h-131l58 361zM178 1315l90 207h146l-127 -207h-109z" />
<glyph unicode="&#xfe;" horiz-adv-x="536" d="M82 -408v1977h123v-500q6 16 17 34.5t27.5 35t37 28t47.5 11.5q82 0 111.5 -69t29.5 -239v-573q0 -86 -4 -145.5t-16.5 -96.5t-36 -54t-64.5 -17q-53 0 -87 30.5t-62 69.5v-492h-123zM205 233q0 -70 16.5 -100.5t57.5 -30.5q43 0 58 35t15 121v651q0 86 -15 121t-58 35 q-29 0 -51.5 -35t-22.5 -121v-676z" />
<glyph unicode="&#xff;" horiz-adv-x="468" d="M0 1161h131l98 -885q0 -27 1 -53t3 -51l5 12q2 23 3 46.5t1 45.5l96 885h131l-238 -1571h-131l58 361zM10 1380q0 43 29 65.5t67 22.5q43 0 65 -26.5t22 -67.5q0 -39 -30 -59.5t-65 -20.5t-61.5 27.5t-26.5 58.5zM276 1380q0 43 29 65.5t68 22.5q43 0 64.5 -26.5 t21.5 -67.5q0 -39 -30 -59.5t-64.5 -20.5t-61.5 27.5t-27 58.5z" />
<glyph unicode="&#x152;" horiz-adv-x="876" d="M72 301v967q0 102 24.5 165.5t61.5 99.5t79 49t76 13q23 0 54.5 -6t62.5 -20h416v-127h-291v-588h276v-127h-276v-600h291v-127h-418q-29 -16 -59.5 -21.5t-55.5 -5.5q-35 0 -76.5 13.5t-78.5 49.5t-61.5 99.5t-24.5 165.5zM199 246q0 -86 35.5 -121t78.5 -35t79 35 t36 121v1093q0 39 -10 66t-26.5 43t-37 23.5t-41.5 7.5q-43 0 -78.5 -35t-35.5 -121v-1077z" />
<glyph unicode="&#x153;" horiz-adv-x="776" d="M61 289v573q0 168 42 237.5t155 69.5q90 0 135 -45q45 45 135 45q55 0 93 -16t62 -52t33 -94.5t9 -144.5v-327h-270v-285q0 -86 15 -121t58 -35t58.5 35t15.5 121v133h123v-94q0 -86 -9 -144.5t-33 -94.5t-61.5 -52t-93.5 -16q-90 0 -135 45q-45 -45 -135 -45 q-113 0 -155 69.5t-42 237.5zM184 250q0 -86 15.5 -121t58.5 -35t58.5 35t15.5 121v651q0 86 -15.5 121t-58.5 35t-58.5 -35t-15.5 -121v-651zM455 645h147v256q0 86 -15.5 121t-58.5 35t-58 -35t-15 -121v-256z" />
<glyph unicode="&#x178;" horiz-adv-x="569" d="M0 1571h129l145 -703l166 705h129l-239 -985v-588h-123v586zM51 1788q0 43 29 65.5t67 22.5q43 0 64.5 -26.5t21.5 -67.5q0 -39 -29.5 -59.5t-64.5 -20.5t-61.5 27.5t-26.5 58.5zM317 1788q0 43 29 65.5t68 22.5q43 0 64.5 -26.5t21.5 -67.5q0 -39 -30 -59.5t-64.5 -20.5 t-61.5 27.5t-27 58.5z" />
<glyph unicode="&#x2c6;" horiz-adv-x="415" d="M16 1315l113 207h143l121 -207h-108l-80 127l-74 -127h-115z" />
<glyph unicode="&#x2dc;" horiz-adv-x="415" d="M6 1315q2 10 7 31.5t18.5 43t38 38t63.5 16.5q35 0 67.5 -15.5t61.5 -15.5q16 0 21.5 14.5t5.5 16.5l119 -2q-10 -59 -45 -94t-89 -35q-35 0 -62.5 17.5t-57.5 17.5q-16 0 -22.5 -9.5t-10.5 -23.5h-115z" />
<glyph unicode="&#x2013;" horiz-adv-x="495" d="M49 541v114h393v-114h-393z" />
<glyph unicode="&#x2014;" horiz-adv-x="772" d="M49 541v114h670v-114h-670z" />
<glyph unicode="&#x2018;" horiz-adv-x="264" d="M-37 1147l264 424h70l-186 -424h-148z" />
<glyph unicode="&#x2019;" horiz-adv-x="266" d="M-35 1145l187 424h147l-264 -424h-70z" />
<glyph unicode="&#x201a;" horiz-adv-x="258" d="M-94 -276l180 446h154l-260 -446h-74z" />
<glyph unicode="&#x201c;" horiz-adv-x="516" d="M-37 1147l264 424h72l-190 -424h-146zM215 1147l264 424h70l-187 -424h-147z" />
<glyph unicode="&#x201d;" horiz-adv-x="518" d="M-35 1145l187 424h147l-264 -424h-70zM215 1145l191 424h145l-264 -424h-72z" />
<glyph unicode="&#x201e;" horiz-adv-x="509" d="M-94 -254l186 424h148l-265 -424h-69zM156 -254l190 424h146l-265 -424h-71z" />
<glyph unicode="&#x2022;" horiz-adv-x="581" d="M45 705q0 51 19.5 96t53.5 78.5t80 54t99 20.5q35 0 77 -11t81 -40t64.5 -77t25.5 -121q0 -59 -21.5 -105.5t-55.5 -79.5t-78 -49t-89 -16q-53 0 -99 18.5t-81 52t-55.5 79t-20.5 100.5z" />
<glyph unicode="&#x2026;" horiz-adv-x="813" d="M47 66q0 43 28.5 65.5t67.5 22.5q43 0 64.5 -27t21.5 -68q0 -39 -29.5 -59t-64.5 -20t-61.5 27.5t-26.5 58.5zM313 66q0 43 29 65.5t68 22.5q43 0 64.5 -27t21.5 -68q0 -39 -30 -59t-64.5 -20t-61.5 27.5t-27 58.5zM580 66q0 43 28.5 65.5t67.5 22.5q43 0 64.5 -27 t21.5 -68q0 -39 -30 -59t-64.5 -20t-61 27.5t-26.5 58.5z" />
<glyph unicode="&#x2039;" horiz-adv-x="348" d="M29 590l149 346h127l-151 -346l151 -342h-127z" />
<glyph unicode="&#x203a;" horiz-adv-x="350" d="M41 248l152 342l-152 346h127l149 -346l-149 -342h-127z" />
<glyph unicode="&#x20ac;" horiz-adv-x="651" d="M27 848v115h79v305q0 102 25 165.5t61.5 99.5t78.5 49t77 13t77 -12t79 -48t61.5 -99.5t24.5 -167.5v-103h-127v158q0 86 -36 121t-79 35t-79 -35t-36 -121v-360h330v-115h-330v-131h332v-115h-332v-356q0 -86 36 -121t79 -35t79 35t36 121v135h127v-80 q0 -104 -24.5 -167.5t-61.5 -99.5t-79 -48.5t-77 -12.5t-77 13.5t-78.5 49.5t-61.5 99.5t-25 165.5v301h-77v115h77v131h-79z" />
<glyph unicode="&#x2122;" horiz-adv-x="1179" d="M10 1462v107h436v-107h-163v-614h-109v614h-164zM496 848v721h163l140 -502l8 -121l8 121l139 502h166v-721h-108v514l12 96l-29 -92l-164 -518h-61l-152 518l-28 92l12 -96v-514h-106z" />
<glyph unicode="&#xe000;" horiz-adv-x="1160" d="M0 1160h1160v-1160h-1160v1160z" />
<glyph unicode="&#xfb01;" horiz-adv-x="630" d="M0 1049v110h113v115q0 168 47 237.5t129 69.5q23 0 42 -3t40 -7v-103h-62q-43 0 -58 -34.5t-15 -120.5v-154h133v-110h-133v-1049h-123v1049h-113zM414 1411q0 39 29.5 59.5t64.5 20.5t61.5 -27.5t26.5 -58.5q0 -43 -28.5 -65.5t-67.5 -22.5q-43 0 -64.5 26.5t-21.5 67.5 zM436 0v1161h123v-1161h-123z" />
<glyph unicode="&#xfb02;" horiz-adv-x="643" d="M0 1049v110h113v115q0 168 47 237.5t129 69.5q23 0 42 -3t40 -7v-103h-62q-43 0 -58 -34.5t-15 -120.5v-154h133v-110h-133v-1049h-123v1049h-113zM438 0v1571h123v-1571h-123z" />
<glyph unicode="&#xfb03;" horiz-adv-x="966" d="M0 1049v110h113v115q0 168 47 237.5t129 69.5q23 0 42 -3t40 -7v-103h-62q-43 0 -58 -34.5t-15 -120.5v-154h133v-110h-133v-1049h-123v1049h-113zM350 1049v110h113v115q0 168 47 237.5t129 69.5q23 0 42 -3t40 -7v-103h-62q-43 0 -58 -34.5t-15 -120.5v-154h133v-110 h-133v-1049h-123v1049h-113zM750 1411q0 39 29.5 59.5t64.5 20.5t61.5 -27.5t26.5 -58.5q0 -43 -29 -65.5t-67 -22.5q-43 0 -64.5 26.5t-21.5 67.5zM772 0v1161h123v-1161h-123z" />
<glyph unicode="&#xfb04;" horiz-adv-x="987" d="M0 1049v110h113v115q0 168 47 237.5t129 69.5q23 0 42 -3t40 -7v-103h-62q-43 0 -58 -34.5t-15 -120.5v-154h133v-110h-133v-1049h-123v1049h-113zM350 1049v110h113v115q0 168 47 237.5t129 69.5q23 0 42 -3t40 -7v-103h-62q-43 0 -58 -34.5t-15 -120.5v-154h133v-110 h-133v-1049h-123v1049h-113zM782 0v1571h123v-1571h-123z" />
</font>
</defs>
</svg>
